<?xml version="1.0" encoding="utf-8"?>
<!-- Generator: Adobe Illustrator 22.0.1, SVG Export Plug-In . SVG Version: 6.00 Build 0)  -->
<svg version="1.1" id="Layer_1" xmlns="http://www.w3.org/2000/svg" xmlns:xlink="http://www.w3.org/1999/xlink" x="0px" y="0px"
	 viewBox="0 0 264 264" style="enable-background:new 0 0 264 264;" xml:space="preserve">
<style type="text/css">
	.st0{filter:url(#filter-1);}
	.st1{fill:#01BFFF;}
</style>
<filter  filterUnits="objectBoundingBox" height="200%" id="filter-1" width="200%" x="-50%" y="-50%">
	<feOffset  dx="0" dy="2" in="SourceAlpha" result="shadowOffsetOuter1"></feOffset>
	<feGaussianBlur  in="shadowOffsetOuter1" result="shadowBlurOuter1" stdDeviation="2"></feGaussianBlur>
	
		<feColorMatrix  in="shadowBlurOuter1" result="shadowMatrixOuter1" type="matrix" values="0 0 0 0 0   0 0 0 0 0   0 0 0 0 0  0 0 0 0.05 0">
		</feColorMatrix>
	<feMerge>
		<feMergeNode  in="shadowMatrixOuter1"></feMergeNode>
		<feMergeNode  in="SourceGraphic"></feMergeNode>
	</feMerge>
</filter>
<title>ic_home</title>
<desc>Created with Sketch.</desc>
<g id="OPt-2">
	<g id="prog2_pro3_Mobile-Portrait_opt2-Copy-2" transform="translate(-10.000000, -15.000000)">
		<g id="nav">
			<g id="Group-6" class="st0">
				<g id="ic_home_1_" transform="translate(14.000000, 17.000000)">
					<g id="Group_1_" transform="translate(9.600000, 12.000000) scale(-1, 1) translate(-9.600000, -12.000000) ">
						<path id="Shape_5_" class="st1" d="M-195.7,74.3l9.6,7.5l15.5,12c2.1-10.4,8.1-19.4,16.5-25.3L-184,45.4l9.2-12.3
							c3.8-5,2.8-12.2-2.1-16l-22.5,29.9c-3.3,4.4-4.5,9.8-3.7,14.9C-202.3,66.6-199.8,71.1-195.7,74.3L-195.7,74.3z"/>
						<path id="Shape_4_" class="st1" d="M-101.1,178.7c-33.3-17.5-63-22.4-70.5-10.4c-6.1,9.8,4.3,28.5,24.8,47.7l-19.4,31.6h-13.2
							c-6.1,0.2-11,5.2-11,11.4h17.2h22.8l7-11.4l11.3-18.3l4.4-7.2c-1.6-2.6-2.5-5.6-2.5-8.8c0-9.4,7.5-17,16.8-17
							c0.5,0,1,0,1.5,0.1L-101.1,178.7L-101.1,178.7z"/>
						<path id="Shape_3_" class="st1" d="M-7.9,69.9C-9.6,61.4-17,55-25.9,55c-2.5,0-5,0.5-7.2,1.5c-6.6,2.8-11.3,9.5-11.3,17.2
							v88.6c0,6.3-5,11.4-11.3,11.4c-4.5,0-8.4-2.7-10.2-6.6c-0.2-0.3-0.3-0.7-0.4-1.1l-10.5-26.3l20.3-69.5c0,0,0-0.1,0-0.1
							c0.2-0.8,0.5-1.6,0.7-2.3c7.4-27.3-5.9-55.7-30.8-67.4l-47.9,16.9c-5.9,2-9,8.5-7,14.5l12.1-4.4c4.8-1.7,10.1,0.8,11.8,5.7
							c1.7,4.9-0.8,10.2-5.6,11.9l-12.5,4.5c2.2,5.9,8.6,8.9,14.4,6.7l13.2-4.9c0.9,5.4-2,10.8-7.3,12.7l-25.3,9.3
							c-10.7,4.6-18.3,15.2-18.8,27.6c0,0.5-0.1,0.9-0.1,1.4c0,0.3,0,0.6,0,0.8c-0.1-0.1-0.1-0.2-0.1-0.2H-199V87.4
							c0-4.3-5.3-8.1-8.6-10l-2.7-1.4v37.9c0.1,10.7,8.7,19.3,19.2,19.3h44.6c3.9,0,7.8,0.5,11.5,1.4c-0.2,0-0.4-0.1-0.5-0.2
							c0.2,0.1,0.4,0.1,0.6,0.2c0.1,0,0.2,0.1,0.3,0.1c19.9,5,34.9,22.2,37,43.4c0,0.4,0.1,0.7,0.1,1.1c0.1,1.2,0.1,2.5,0.1,3.7
							c0,11.9-4.1,22.8-11,31.4c-0.5,0.6-1,1.2-1.6,1.8c-1.4,2-2.2,4.5-2.2,7.2c0,6.9,5.5,12.5,12.4,12.5c2.5,0,4.7-0.7,6.7-2l25-15
							c3.5,2,5.8,5.7,5.8,10c0,2.8-1,5.4-2.7,7.4l-10.4,11.4h-12.7h0h-0.6c-6.1,0.2-11,5.2-11,11.4h22.6h0h13.6
							c0-10.8,8.6-19.5,19.3-19.5v-33.3c-8.8-1.8-15.5-9.7-15.5-19.1c0-0.5,0-0.9,0.1-1.4c1.1,0.2,2.3,0.3,3.4,0.3
							c4.4,0,8.5-1.3,12-3.4c6.8-4.1,11.3-11.6,11.3-20.2V73.7c0-4.1,3.3-7.5,7.4-7.5c3.9,0,7.1,3.1,7.4,7
							c-5.1,3.5-8.4,9.4-8.4,16.1c0,10.8,8.6,19.5,19.3,19.5V73.7C-7.5,72.4-7.6,71.1-7.9,69.9L-7.9,69.9z"/>
					</g>
				</g>
			</g>
		</g>
	</g>
</g>
</svg>
